<?xml version="1.0" encoding="utf-8"?>
<!-- Generator: Adobe Illustrator 25.1.0, SVG Export Plug-In . SVG Version: 6.00 Build 0)  -->
<svg version="1.1" id="Layer_1" xmlns="http://www.w3.org/2000/svg" xmlns:xlink="http://www.w3.org/1999/xlink" x="0px" y="0px"
	 viewBox="0 0 821.8 601.7" style="enable-background:new 0 0 821.8 601.7;" xml:space="preserve">
<style type="text/css">
	.st0{fill:#FFB6B6;}
	.st1{fill:#2F2E41;}
	.st2{fill:#CBCBCB;}
	.st3{fill:#3F3D56;}
	.st4{fill:#FFFFFF;}
	.st5{fill:#F1F1F1;}
	.st6{fill:#FF6582;}
	.st7{fill:#6D9982;}
	.st8{fill:#E5E5E5;}
	.st9{fill:#E4E4E4;}
	.st10{fill:#CACACA;}
</style>
<polygon class="st0" points="800.3,584 792.2,586.6 778.3,556.4 790.3,552.6 "/>
<path class="st1" d="M804.9,591.2l-26.3,8.4l-0.1-0.3c-1.8-5.6,1.3-11.7,7-13.5l0,0l3.6-5.2l10.1,0.8l2.3-0.7L804.9,591.2z"/>
<polygon class="st0" points="723.1,592.1 714.6,592.1 710.5,559.1 723.1,559.1 "/>
<path class="st1" d="M725.3,600.4l-27.6,0v-0.3c0-5.9,4.8-10.7,10.7-10.7h0l5-3.8l9.4,3.8l2.4,0L725.3,600.4z"/>
<path class="st0" d="M682.3,251.3c-2.4,3-1.9,7.4,1.1,9.9c0.3,0.3,0.7,0.5,1,0.7l-4.1,24.6l11.8-5.3l2.1-22.5
	c1.6-3.5,0.1-7.7-3.4-9.4C687.8,247.9,684.3,248.8,682.3,251.3z"/>
<path class="st1" d="M790.2,455.2c0,0,2-26-5.1-30.8c-7.1-4.8-65.3-7.3-65.3-7.3l-3.6,4.8c0,0-0.3,2.2-5.8,20.3l-2.2,101.1
	c-0.2,9.9-1.9,22.2,2.2,24.8l2,10h11l6.1-16.8c2.6-4.2,3.7-9.2,3.2-14.2l3.3-14.8c-0.2-0.2-0.4-0.5-0.5-0.8
	c-0.4-2.2,0.1-4.5,1.4-6.3c0.3-0.4,0.6-0.8,1-1.2l12.2-54.4l16.4,63.6l10.1,22.6c-1,2.4-0.3,4.5,1.5,6.5c-0.7,1.9,2.2,3.2,3.5,5.5
	l3.9,7.4l11-6l1-6c0.7-1.8-1.1-3-2.4-6.7c2.5-2.6,2.3-5.2,0-7.7l-4.2-17.9l0-8.2l-0.1-8.8L790.2,455.2z"/>
<circle class="st0" cx="744.2" cy="281.7" r="19.1"/>
<path class="st1" d="M763.5,284.7l-0.3-0.6c-0.5-1-4.5-9.1-5-11.2l-5.1,0.6l-13.2,0l1.8-2.8l-4.9,0.6c-1.8,0.2-3.5,0.9-5,1.9
	c-0.9,0.6-1.7,1.4-2.2,2.3c-1.7,3-4.4,7.8-4.4,7.9l-0.3,0.5l-2.2-3.7c0-0.1-2.8-14.4,6.4-19.2c2.7-5.2,8.2-8.3,14-8
	c1-1.2,2.5-1.9,4.1-2c2.2-0.1,4.4,1,6.7,3.4c3,3.2,7.1,7.5,9.6,12.3l0.7,1c1,1.4,1.5,3.1,1.4,4.8c0.5,2.7,0.3,5.5-0.5,8.2
	L763.5,284.7z"/>
<path class="st2" d="M790.1,318.1l-20.8-5.8l-10.6-7.8l-20.8,3.3l-0.1,0.1c-3.6,4.7-9.2,9.4-15.2,9.6c-1.5,0-3.1,0.3-4.5,0.7
	l-2,36.5v32.6c0.6,0.2,1.1,0.7,1.3,1.4c0.6,3.3,0.5,6.7-0.2,10c-0.2,1.2-0.6,2.3-1.1,3.3c1.2,2.4,1.2,5.3,0,7.7
	c-1.8,1.7-1.5,3.5,0,5.5v6.8c33.7,28.1,68.9,4,68.9,4l-1.1-53.5L790.1,318.1z"/>
<path class="st2" d="M722.8,323.1l-4.7-5l-25.7-2.9l2.4-39.4l-14-10l-6.3,34.2c-2.2,1.9-2.6,3.7-1,5.6c-1.7,3.5-2.2,6.3-1.6,8.6
	l-1.3,7.1l47.5,33.3L722.8,323.1z"/>
<path class="st0" d="M786.3,452c-2.1-3.3-1.1-7.6,2.1-9.7c0.3-0.2,0.7-0.4,1.1-0.6l-1.5-24.9l11.2,6.5L799,446
	c1.2,3.7-0.7,7.7-4.4,8.9C791.5,456,788.1,454.8,786.3,452L786.3,452z"/>
<path class="st2" d="M782.3,324.3l7.8-6.2c0,0,8,4.4,10.4,12.3s6.7,52.8,6.7,52.8l0.7,16.7c0.8,2.7,0.6,5-1.4,6.9
	c3,3.1,2.6,5.7-1.5,7.7l-4.3,26.3l-13.4-2.8l1.7-51.9l-10.9-33.4L782.3,324.3z"/>
<path class="st3" d="M283,137.2h-2.7v-75c0-24-19.4-43.4-43.4-43.4c0,0,0,0,0,0H78.1c-24,0-43.4,19.4-43.4,43.4v411.2
	c0,24,19.4,43.4,43.4,43.4h158.8c24,0,43.4-19.4,43.4-43.4V190.6h2.7V137.2z"/>
<path class="st4" d="M238.6,30.1h-20.7c3.2,7.9-0.6,16.9-8.4,20.1c-1.8,0.8-3.8,1.1-5.8,1.1h-91c-8.5,0-15.4-6.9-15.4-15.4
	c0-2,0.4-4,1.1-5.8H79.1c-17.9,0-32.4,14.5-32.4,32.4v410.6c0,17.9,14.5,32.4,32.4,32.4l0,0h159.6c17.9,0,32.4-14.5,32.4-32.4l0,0
	l0,0V62.5C271,44.6,256.5,30.1,238.6,30.1C238.6,30.1,238.6,30.1,238.6,30.1z"/>
<path class="st5" d="M237.1,183.9c0,9.3-1.7,18.6-4.9,27.3c-1.5,4-3.3,7.9-5.4,11.6c-21.5,37.5-69.3,50.5-106.8,29
	c-12.1-6.9-22.1-16.9-29-29c-0.7-1.2-1.4-2.4-2-3.7c-19.5-38.6-3.9-85.7,34.7-105.1c38.6-19.5,85.7-3.9,105.1,34.7
	C234.2,159.6,237.1,171.7,237.1,183.9z"/>
<circle class="st6" cx="162.9" cy="182.2" r="15"/>
<path class="st7" d="M89,219.2c6.6-7.1,15.4-18.4,23.7-10.3c4.1,3.9,10.6,13.4,16.9,7.2l48.5-48.5c3.8-3.7,9.9-3.7,13.6,0.1
	c0.1,0.1,0.1,0.1,0.2,0.2l40.4,43.5c-1.5,4-3.3,7.9-5.4,11.6H90.9L89,219.2z"/>
<path id="a69ed34c-3aa3-4521-988a-f33ab8935c86-325" class="st7" d="M195.6,342.8c-1.1,0-2,0.9-2,2c0,1.1,0.9,2,2,2h21.2
	c1.1,0,2-0.9,2-2s-0.9-2-2-2H195.6z"/>
<path id="a82b6965-e745-4a79-ac21-2b08adebfabf-326" class="st8" d="M100,313.1c-1.1,0-2,0.9-2,2s0.9,2,2,2l0,0h117.7
	c1.1,0,2-0.9,2-2s-0.9-2-2-2H100z"/>
<path id="a01cc774-2c01-4baa-ba73-f6c316fae153-327" class="st8" d="M100,328c-1.1,0-2,0.9-2,2c0,1.1,0.9,2,2,2h117.7
	c1.1,0,2-0.9,2-2s-0.9-2-2-2c0,0,0,0,0,0H100z"/>
<path id="f6ecfbd0-b722-47f2-8687-80b685eaa1e2-328" class="st7" d="M195.6,438.1c-1.1,0-2,0.9-2,2c0,1.1,0.9,2,2,2h21.2
	c1.1,0,2-0.9,2-2c0-1.1-0.9-2-2-2H195.6z"/>
<path id="beaff243-1f9b-420c-bc28-f0641d12fad8-329" class="st8" d="M100,408.4c-1.1,0-2,0.9-2,2c0,1.1,0.9,2,2,2l0,0h117.7
	c1.1,0,2-0.9,2-2s-0.9-2-2-2c0,0,0,0,0,0H100z"/>
<path id="a8605179-8b03-4e4a-93a2-1a820418a8d0-330" class="st8" d="M100,423.3c-1.1,0-2,0.9-2,2c0,1.1,0.9,2,2,2l0,0h117.7
	c1.1,0,2-0.9,2-2c0-1.1-0.9-2-2-2H100z"/>
<path class="st9" d="M671.1,227.9l-16.2-7.3c-0.3,7.3-6.4,12.9-13.6,12.7c-1.7-0.1-3.4-0.5-4.9-1.2L565.5,200
	c-6.6-3-9.6-10.8-6.6-17.4c0.7-1.6,1.7-3,2.9-4.1l-15.1-6.8c-13.9-6.3-30.4-0.1-36.7,13.8l-144.7,320c-6.3,13.9-0.1,30.4,13.8,36.7
	c0,0,0,0,0,0h0l124.3,56.2c13.9,6.3,30.4,0.1,36.7-13.8l0,0l0,0l144.7-320C691.2,250.6,685,234.2,671.1,227.9L671.1,227.9z"/>
<path class="st4" d="M527.2,380.2c-22.2-10.1-37.3-31.2-39.6-55.4c-0.1-1.2-0.2-2.4-0.3-3.6c-0.5-10.6,1.6-21.2,6-30.9
	c15.5-34.2,55.7-49.3,89.9-33.9c34.2,15.5,49.3,55.7,33.9,89.9c-3.3,7.4-7.9,14.1-13.6,19.8c-2.6,2.6-5.4,5-8.4,7.2
	C575.2,387.6,549.4,390.2,527.2,380.2z M582.3,258.3c-33.2-15-72.2-0.2-87.2,32.9c-4.3,9.4-6.3,19.6-5.8,29.9c0,1.2,0.1,2.3,0.2,3.5
	c3.5,36.3,35.7,62.8,71.9,59.3c11.7-1.1,22.8-5.3,32.3-12.2c2.9-2.1,5.7-4.4,8.2-7c25.6-25.9,25.4-67.6-0.4-93.3
	C596,266,589.5,261.5,582.3,258.3L582.3,258.3z"/>
<rect x="555.7" y="250.8" transform="matrix(0.9338 -0.3577 0.3577 0.9338 -76.6514 220.1297)" class="st4" width="2" height="132.8"/>
<rect x="487.6" y="317.3" transform="matrix(0.9339 -0.3576 0.3576 0.9339 -77.1769 219.2059)" class="st4" width="132.8" height="2"/>
<path class="st4" d="M554.2,477.2l-117.4-53.1c-1.8-0.8-2.6-3-1.8-4.8l11-24.4c0.8-1.8,3-2.6,4.8-1.8l117.4,53.1
	c1.8,0.8,2.6,3,1.8,4.8l-11,24.4C558.1,477.2,556,478,554.2,477.2z M450,394.9c-0.8-0.4-1.8,0-2.1,0.8l-11,24.4
	c-0.4,0.8,0,1.8,0.8,2.1L555,475.3c0.8,0.4,1.8,0,2.1-0.8l11-24.4c0.4-0.8,0-1.8-0.8-2.1L450,394.9z"/>
<path class="st4" d="M525.8,540L408.4,487c-1.8-0.8-2.6-3-1.8-4.8l11-24.4c0.8-1.8,3-2.6,4.8-1.8l117.4,53.1c1.8,0.8,2.6,3,1.8,4.8
	l-11,24.4C529.7,540,527.6,540.8,525.8,540z M421.6,457.8c-0.8-0.4-1.8,0-2.1,0.8l-11,24.4c-0.4,0.8,0,1.8,0.8,2.1l117.4,53.1
	c0.8,0.4,1.8,0,2.1-0.8l11-24.4c0.4-0.8,0-1.8-0.8-2.1L421.6,457.8z"/>
<path class="st7" d="M480.4,381c-2.4-12-7.6-23.3-15.2-32.9c-7.7-9.8-17.1-18.1-27.8-24.5c-11-6.7-23-11.6-35.6-14.6
	c-15.6-3.8-31.7-5-47.8-4.8c-16.1,0.2-32.2,1.7-48.3,3.4c-2,0.2-4.1,0.4-6.1,0.6c-1.9,0.2-1.9,3.2,0,3c15.8-1.7,31.6-3.3,47.5-3.9
	c15.8-0.5,31.6,0.1,47.2,3.1c12.9,2.4,25.4,6.8,36.9,13.1c10.8,5.8,20.4,13.5,28.5,22.7c7.9,9,13.7,19.7,16.8,31.2
	c0.4,1.5,0.7,2.9,1,4.4C477.9,383.6,480.8,382.8,480.4,381z"/>
<path class="st7" d="M310.4,286.6l-24,25.5c-0.6,0.6-0.6,1.6,0,2.1c0.1,0.1,0.2,0.2,0.3,0.2l21.6,10.3c1.7,0.8,3.3-1.8,1.5-2.6
	l-21.6-10.3l0.3,2.4l24-25.5C313.8,287.3,311.7,285.2,310.4,286.6L310.4,286.6z"/>
<path class="st10" d="M820.6,601.7H363.3c-0.7,0-1.2-0.5-1.2-1.2s0.5-1.2,1.2-1.2c0,0,0,0,0,0h457.3c0.7,0,1.2,0.5,1.2,1.2
	S821.2,601.7,820.6,601.7C820.6,601.7,820.6,601.7,820.6,601.7z"/>
</svg>
